# xmcd
#
# Track frame offsets:
#	150
#	15048
#	29288
#	47191
#	63845
#	77577
#	93990
#	106948
#	120598
#	137315
#	152122
#	166025
#	179783
#	198022
#	214206
#	229279
#
# Disc length: 3280 seconds
#
# Revision: 1
# Processed by: cddbd v1.5.1PL0 Copyright (c) Steve Scherf et al.
# Submitted via: audiograbber 1.83.01
#
DISCID=c10cce10
DTITLE=Various Artist - Hott Country 113
DYEAR=2005
DGENRE=Country
TTITLE0=Poverty Plainsmen - Sister Golden Hair
TTITLE1=Tracy Lawrence - Used To The Pain
TTITLE2=Trace Adkins - Arlington
TTITLE3=Keith Anderson - XXL
TTITLE4=Jeff Bates - Good People
TTITLE5=Dwight Yoakam - Intentional Heartache
TTITLE6=Jace Everett - That's the Kind Of Love I'm In
TTITLE7=Charlie Major - I'm Alright
TTITLE8=Andy Griggs - This I Gotta See
TTITLE9=Aaron Lines - It Takes A Man
TTITLE10=Tristan Prettyman - Love Love Love ( Radio Edit )
TTITLE11=Shelly Fairchild - Kiss Me
TTITLE12=Gary Allan - Best I've Ever Had
TTITLE13=Doc Walker - I Am Ready
TTITLE14=Cletus T Judd - Paycheck Woman
TTITLE15=David Lee Murphy - ust On The Bottle
EXTD=
EXTT0=
EXTT1=
EXTT2=
EXTT3=
EXTT4=
EXTT5=
EXTT6=
EXTT7=
EXTT8=
EXTT9=
EXTT10=
EXTT11=
EXTT12=
EXTT13=
EXTT14=
EXTT15=
PLAYORDER=
